<svg id="Layer_1" data-name="Layer 1" xmlns="http://www.w3.org/2000/svg" viewBox="0 0 512 512"><title>tic-tac-toe</title><g id="tic-tac-toe"><rect x="344.58" y="0.38" width="18.04" height="511.24" fill="#ff5551"/><rect x="149.38" y="0.38" width="18.04" height="511.24" fill="#ff5551"/><rect x="0.38" y="344.59" width="511.25" height="18.04" fill="#ff5551"/><rect x="0.38" y="149.38" width="511.25" height="18.04" fill="#ff5551"/><path d="M60.48,499.76a9,9,0,0,1-6-2.24l-34.7-30.43A52.17,52.17,0,0,1,3.32,440.38c-1.88-7.7-1.17-12.5-.91-13.79,1.66-18.53,16.69-33.23,34.83-33.23a33.65,33.65,0,0,1,23.35,9.28,35.07,35.07,0,0,1,23.74-9.28c18.12,0,33.17,14.69,35,34.18.12.43.78,5.18-1.07,12.81a52.12,52.12,0,0,1-16.51,26.73l-35.4,30.49A9,9,0,0,1,60.48,499.76ZM37.24,411.41c-10.09,0-16.19,9-17,17.81a18.16,18.16,0,0,0,.62,6.87,34.22,34.22,0,0,0,10.88,17.44l28.8,25.25,29.39-25.31a34.07,34.07,0,0,0,10.82-17.39,20,20,0,0,0,.72-6.3c-.91-9.42-7-18.38-17.12-18.38a17.07,17.07,0,0,0-15.59,10.21A9,9,0,0,1,60.48,427h0a9,9,0,0,1-8.25-5.42C49.42,415.21,43.83,411.41,37.24,411.41Z" fill="#ff5551"/><path d="M450.89,118.64a9,9,0,0,1-6-2.24L410.25,86a52.11,52.11,0,0,1-16.52-26.72c-1.88-7.68-1.19-12.46-.94-13.75,1.69-18.58,16.74-33.27,34.87-33.27A33.63,33.63,0,0,1,451,21.54a35,35,0,0,1,23.75-9.29c18.12,0,33.17,14.7,35,34.18.12.38.8,5.16-1.05,12.82A52.26,52.26,0,0,1,492.16,86l-35.38,30.48A9,9,0,0,1,450.89,118.64ZM427.65,30.29c-10.09,0-16.21,9-17,17.83a18.3,18.3,0,0,0,.63,6.85,34.11,34.11,0,0,0,10.9,17.45l28.79,25.25,29.37-25.3A34.29,34.29,0,0,0,491.16,55a19.3,19.3,0,0,0,.69-6.24c-.91-9.47-7-18.44-17.12-18.44a17.06,17.06,0,0,0-15.59,10.22,9,9,0,0,1-8.26,5.39h0a9,9,0,0,1-8.26-5.4C439.82,34.11,434.23,30.29,427.65,30.29Z" fill="#ff5551"/><path d="M255.69,309.2a9,9,0,0,1-6-2.24L215,276.55a52.11,52.11,0,0,1-16.52-26.72c-1.89-7.7-1.18-12.49-.92-13.79,1.66-18.53,16.7-33.23,34.84-33.23a33.66,33.66,0,0,1,23.35,9.28,35,35,0,0,1,23.75-9.28c18.13,0,33.17,14.7,35,34.18.12.41.79,5.17-1.08,12.82A52,52,0,0,1,297,276.53L261.57,307A9,9,0,0,1,255.69,309.2Zm-23.25-88.35c-10.09,0-16.19,9-17,17.81a18.09,18.09,0,0,0,.62,6.86A34.15,34.15,0,0,0,226.94,263l28.8,25.25,29.37-25.3a34.06,34.06,0,0,0,10.83-17.39,19.83,19.83,0,0,0,.72-6.27c-.91-9.44-7-18.41-17.12-18.41a17.05,17.05,0,0,0-15.6,10.21,9,9,0,0,1-8.26,5.4h0a9,9,0,0,1-8.26-5.42C244.64,224.66,239,220.85,232.44,220.85Z" fill="#ff5551"/><path d="M451.2,306.85A50.85,50.85,0,1,1,502.06,256,50.91,50.91,0,0,1,451.2,306.85Zm0-83.66A32.81,32.81,0,1,0,484,256,32.84,32.84,0,0,0,451.2,223.2Z" fill="#ff5551"/><path d="M256,497.41a50.85,50.85,0,1,1,50.85-50.85A50.91,50.91,0,0,1,256,497.41Zm0-83.66a32.81,32.81,0,1,0,32.8,32.81A32.85,32.85,0,0,0,256,413.75Z" fill="#ff5551"/><path d="M60.8,306.85A50.85,50.85,0,1,1,111.65,256,50.91,50.91,0,0,1,60.8,306.85Zm0-83.66A32.81,32.81,0,1,0,93.6,256,32.84,32.84,0,0,0,60.8,223.2Z" fill="#ff5551"/><path d="M493,497.41a9,9,0,0,1-6.38-2.64L403,411.11a9,9,0,1,1,12.76-12.76L499.41,482a9,9,0,0,1-6.38,15.4Z" fill="#ff5551"/><path d="M409.39,497.41A9,9,0,0,1,403,482l83.64-83.66a9,9,0,1,1,12.76,12.76l-83.64,83.66A9,9,0,0,1,409.39,497.41Z" fill="#ff5551"/><path d="M297.83,116.29a9,9,0,0,1-6.38-2.64L207.79,30a9,9,0,1,1,12.76-12.76l83.65,83.65a9,9,0,0,1-6.38,15.4Z" fill="#ff5551"/><path d="M214.17,116.29a9,9,0,0,1-6.38-15.4l83.65-83.65A9,9,0,0,1,304.21,30l-83.65,83.65A9,9,0,0,1,214.17,116.29Z" fill="#ff5551"/><path d="M102.61,116.29a9,9,0,0,1-6.38-2.64L12.58,30A9,9,0,0,1,25.34,17.24L109,100.89a9,9,0,0,1-6.38,15.4Z" fill="#ff5551"/><path d="M19,116.29a9,9,0,0,1-6.38-15.4L96.24,17.24A9,9,0,0,1,109,30L25.34,113.65A9,9,0,0,1,19,116.29Z" fill="#ff5551"/></g></svg>